<svg width="1920" height="262" viewBox="0 0 1920 262" fill="none" xmlns="http://www.w3.org/2000/svg">
<path d="M58.9693 23.0777C23.7876 4.61551 4.9974 0.452471 0 0.678724V262L1920 256.57V0L1905.01 4.7513C1815.55 -13.5751 1891.51 76.0207 1716.11 71.2694C1540.7 66.5181 1581.18 124.212 1468.24 110.637C1355.29 97.0622 1411.76 125.57 1277.83 122.855C1269.41 122.684 1202.37 131.679 1098.93 118.104C969.357 118.406 820.01 121.678 786.59 110.637C731.119 92.3109 710.63 112.674 639.667 89.5959C568.704 66.5181 531.723 76.0207 487.746 76.0207C424.784 76.0207 290.682 40.0466 229.381 39.3679C187.236 41.6304 94.151 41.5399 58.9693 23.0777Z" fill="#005C97"/>
<path d="M977.773 137.785C861.902 130.641 625.088 108.016 521.702 130.641C418.315 153.266 521.702 181.845 521.702 181.845H1603.16V135.113C1587.43 133.622 1534.74 131.535 1449.79 135.113C1343.61 139.585 1134.98 147.479 977.773 137.785Z" fill="#4983A8"/>
<path d="M377.803 123.034C377.803 123.034 435.615 135.953 473.107 137.348C512.912 138.83 574.845 128.998 574.845 128.998C574.845 128.998 798.57 159.177 855.504 151.066C926.671 140.927 1032.2 150.47 1131.94 160.609C1231.67 170.748 1382.02 175.519 1471.73 151.066C1561.44 126.613 1691.97 140.927 1889.93 86.6527C1897.28 84.9025 1913.58 82.4523 1920 86.6527V262H0.999756V49.0502C3.87748 42.1717 20.8729 52.3788 29.42 49.2797C93.8864 77.3938 69.4638 44.1829 154.919 76.5663C240.375 108.95 245.364 95.8043 277.356 96.9042C288.67 97.2932 295.06 95.788 306.34 96.9042C335.422 99.7816 377.803 123.034 377.803 123.034Z" fill="#D6D6D6"/>
</svg>
